<svg xmlns="http://www.w3.org/2000/svg" fill="none" viewBox="0 0 24 24" class="IconSvg IconSvg_name_SvgMyOffers IconSvg_size_24 HeaderMyLink__icon"><path fill="currentColor" fill-rule="evenodd" d="M19 4a1 1 0 0 1 1 1v14a1 1 0 0 1-1 1H5a1 1 0 0 1-1-1v-2.67h4.52l.11 1.5c.03.38.36.67.75.67h1.18c.41 0 .75-.32.75-.72V13.6a6.6 6.6 0 0 0-.5-2.43l-.25-.61-.57-1.35-.04-.1-.5-1.64-.33-1.04-.06-.2a14.72 14.72 0 0 0-5-.73H4V5a1 1 0 0 1 1-1zM2 19V5a3 3 0 0 1 3-3h14a3 3 0 0 1 3 3v14a3 3 0 0 1-3 3H5a3 3 0 0 1-3-3M7.71 8.56l-.15-.53-.04-.01a7.07 7.07 0 0 0-1.45-.29h-.03c-.6-.06-1.23-.06-1.92-.06h-.05a15.5 15.5 0 0 0-.01-.11v.1a80.28 80.28 0 0 1 0 2.9H8.3l-.2-.68-.06-.18-.34-1.14zm-3.7 4v1.77h5.3v-.72c0-.34-.05-.7-.14-1.05zM14 6a1 1 0 1 0 0 2h4a1 1 0 1 0 0-2z" clip-rule="evenodd"></path></svg>
