<svg xmlns="http://www.w3.org/2000/svg" fill="none" viewBox="0 0 24 24" class="IconSvg IconSvg_name_SvgCarCompare IconSvg_size_24 HeaderMyLink__icon"><path fill="currentColor" fill-rule="evenodd" d="M11 24V0h2v24zM2.29 11l-.58 1.18A6.33 6.33 0 0 0 1 15.3V21a1 1 0 0 0 1 1h1.57a1 1 0 0 0 1-.93L4.7 19H9v-2H3v-1.68c0-.87.1-1.54.47-2.2l.01-.02.05-.1H9v-2H4.16L5.9 6.67A15.1 15.1 0 0 1 9 6.11v-2c-1.77.14-3.23.45-4.61.98L2.8 9H1a1 1 0 0 0-1 1v1zm19.42 0 .58 1.18c.58 1.06.7 2.11.71 3.13V21a1 1 0 0 1-1 1h-1.57a1 1 0 0 1-1-.93L19.3 19H15v-2h6v-1.68c0-.87-.1-1.54-.47-2.2l-.01-.02-.05-.1H15v-2h4.84L18.1 6.67a15.1 15.1 0 0 0-3.1-.56v-2c1.77.14 3.23.45 4.61.98L21.2 9H23a1 1 0 0 1 1 1v1z" clip-rule="evenodd"></path></svg>
