<svg xmlns="http://www.w3.org/2000/svg" viewBox="0 0 24 24"><path fill="" d="M7.79 3c-1.47 0-2.935.593-4.066 1.76-2.299 2.372-2.299 6.326 0 8.7L12 22l8.276-8.54a6.15 6.15 0 0 0 0-8.542c-1.15-1.186-2.644-1.78-4.138-1.78-1.494 0-2.988.594-4.138 1.78C10.832 3.633 9.308 3 7.79 3m0 2.012c1.023 0 1.994.448 2.734 1.263l1.429 1.574 1.479-1.527c.733-.755 1.694-1.171 2.706-1.171 1.013 0 1.974.416 2.706 1.171 1.53 1.58 1.53 4.153 0 5.733L12 19.117l-6.843-7.062c-1.547-1.596-1.547-4.294 0-5.89.72-.744 1.655-1.153 2.633-1.153"></path></svg>
