<svg xmlns="http://www.w3.org/2000/svg" viewBox="0 0 24 24" class="IconSvg IconSvg_name_SvgChat IconSvg_size_24 HeaderMyLink__icon"><path fill="currentColor" d="M12.506 1C6.711 1 2.013 5.694 2.013 11.485c0 1.909.519 3.693 1.41 5.235L2 22l5.943-1.084a10.447 10.447 0 0 0 4.563 1.054C18.302 21.97 23 17.276 23 11.485 23 5.694 18.302 1 12.506 1m0 2c4.685 0 8.495 3.806 8.495 8.485 0 4.679-3.81 8.485-8.495 8.485a8.418 8.418 0 0 1-3.692-.855l-.587-.284-.641.117-2.833.517.6-2.225.217-.803-.417-.719a8.47 8.47 0 0 1-1.141-4.233C4.012 6.806 7.822 3 12.506 3M9 11.5a1.5 1.5 0 1 0-3.001.001A1.5 1.5 0 0 0 9 11.5m5 0a1.5 1.5 0 1 0-3.001.001A1.5 1.5 0 0 0 14 11.5m5 0a1.5 1.5 0 1 0-3.001.001A1.5 1.5 0 0 0 19 11.5"></path></svg>
